<svg width="80" height="80" viewBox="0 0 80 80" fill="none" xmlns="http://www.w3.org/2000/svg">
  <rect width="80" height="80" rx="24" fill="#111827"/>
  <path d="M47.9 18.6c1.5-1.9 2.5-4.4 2.2-6.9-2.3.1-5 1.5-6.6 3.4-1.5 1.7-2.7 4.3-2.4 6.7 2.6.2 5.2-1.3 6.8-3.2Z" fill="white"/>
  <path d="M58.5 51.9c-1.1 2.5-1.7 3.6-3.1 5.8-2 3.1-4.9 7-8.4 7-3.1 0-3.9-2-8.1-2s-5.1 1.9-8.2 2c-3.5.1-6.2-3.6-8.2-6.7-5.6-8.5-6.2-18.5-2.8-23.8 2.4-3.8 6.2-6 9.8-6 3.7 0 6 2 9 2 2.9 0 4.7-2 8.9-2 3.2 0 6.6 1.7 9 4.7-7.9 4.3-6.6 15.6 2.1 19Z" fill="white"/>
</svg>
